<svg xmlns="http://www.w3.org/2000/svg" width="1600" height="1180" viewBox="0 0 1600 1180">
<defs>
  <marker id="arrow" viewBox="0 0 10 10" refX="9" refY="5" markerWidth="8" markerHeight="8" orient="auto-start-reverse">
    <path d="M 0 0 L 10 5 L 0 10 z" fill="#475569"/>
  </marker>
</defs>
<rect width="1600" height="1180" fill="#ffffff"/>
<style>text { font-family: Meiryo, "Yu Gothic", Arial, sans-serif; }</style>
<rect x="20" y="20" width="1560" height="880" rx="0" fill="#f8fafc" stroke="#94a3b8" stroke-width="1.2"/>
<text x="800" y="38" text-anchor="middle" font-size="12" font-weight="500" fill="#475569"> </text>
<rect x="45" y="210" width="830" height="660" rx="0" fill="#ffffff" stroke="#cbd5e1" stroke-width="1.2"/>
<text x="460" y="228" text-anchor="middle" font-size="12" font-weight="500" fill="#475569">デバイス接続サーバー（AppServer / 既存資産活用機器向け）</text>
<rect x="910" y="35" width="620" height="500" rx="0" fill="#ffffff" stroke="#cbd5e1" stroke-width="1.2"/>
<text x="1220" y="53" text-anchor="middle" font-size="12" font-weight="500" fill="#475569">端末</text>
<rect x="1125" y="60" width="350" height="125" rx="0" fill="#ffffff" stroke="#cbd5e1" stroke-width="1.2"/>
<text x="1300" y="78" text-anchor="middle" font-size="12" font-weight="500" fill="#475569">タブレットPOSアプリ</text>
<rect x="925" y="225" width="580" height="285" rx="0" fill="#ffffff" stroke="#cbd5e1" stroke-width="1.2"/>
<text x="1215" y="243" text-anchor="middle" font-size="12" font-weight="500" fill="#475569">DeviceCtrl</text>
<rect x="945" y="380" width="540" height="105" rx="0" fill="#ffffff" stroke="#cbd5e1" stroke-width="1.2"/>
<text x="1215" y="398" text-anchor="middle" font-size="12" font-weight="500" fill="#475569">制御方式</text>
<rect x="65" y="730" width="420" height="130" rx="0" fill="#ffffff" stroke="#cbd5e1" stroke-width="1.2"/>
<text x="275" y="748" text-anchor="middle" font-size="12" font-weight="500" fill="#475569"> </text>
<rect x="505" y="600" width="350" height="250" rx="0" fill="#ffffff" stroke="#cbd5e1" stroke-width="1.2"/>
<text x="680" y="618" text-anchor="middle" font-size="12" font-weight="500" fill="#475569"> </text>
<rect x="20" y="925" width="1560" height="225" rx="0" fill="#f8fafc" stroke="#94a3b8" stroke-width="1.2"/>
<text x="800" y="943" text-anchor="middle" font-size="12" font-weight="500" fill="#475569">周辺機器</text>
<rect x="55" y="975" width="440" height="120" rx="0" fill="#ffffff" stroke="#cbd5e1" stroke-width="1.2"/>
<text x="275" y="993" text-anchor="middle" font-size="12" font-weight="500" fill="#475569">AppServer経由で制御する機器</text>
<rect x="1010" y="975" width="520" height="120" rx="0" fill="#ffffff" stroke="#cbd5e1" stroke-width="1.2"/>
<text x="1270" y="993" text-anchor="middle" font-size="12" font-weight="500" fill="#475569">DeviceCtrlから直接制御する機器</text>
<rect x="1155" y="85" width="220" height="70" rx="8" fill="#ffffff" stroke="#475569" stroke-width="1.4"/>
<text x="1265" y="115" text-anchor="middle" font-size="14" font-weight="700" fill="#0f172a">タブレットPOSアプリ</text>
<text x="1265" y="143" text-anchor="middle" font-size="13" font-weight="400" fill="#0f172a">機器操作を要求する</text>
<rect x="1340" y="70" width="220" height="95" rx="8" fill="#fff1f2" stroke="#dc2626" stroke-width="2"/>
<text x="1450" y="100" text-anchor="middle" font-size="14" font-weight="700" fill="#991b1b">TabletClient</text>
<text x="1450" y="128" text-anchor="middle" font-size="13" font-weight="400" fill="#991b1b">旧方式</text>
<text x="1450" y="146" text-anchor="middle" font-size="13" font-weight="400" fill="#991b1b">削除済み</text>
<text x="1450" y="164" text-anchor="middle" font-size="13" font-weight="400" fill="#991b1b">現行処理では未使用</text>
<rect x="1115" y="250" width="220" height="105" rx="8" fill="#ffffff" stroke="#475569" stroke-width="1.4"/>
<text x="1225" y="280" text-anchor="middle" font-size="13" font-weight="700" fill="#0f172a">DeviceManager / Config / Factory</text>
<text x="1225" y="308" text-anchor="middle" font-size="13" font-weight="400" fill="#0f172a">設定を読み込み</text>
<text x="1225" y="326" text-anchor="middle" font-size="13" font-weight="400" fill="#0f172a">機器ごとの制御方式を決定する</text>
<rect x="965" y="405" width="220" height="85" rx="8" fill="#ffffff" stroke="#475569" stroke-width="1.4"/>
<text x="1075" y="435" text-anchor="middle" font-size="14" font-weight="700" fill="#0f172a">NamedPipeClient</text>
<text x="1075" y="463" text-anchor="middle" font-size="13" font-weight="400" fill="#0f172a">AppServer経由が必要な機器のみ</text>
<text x="1075" y="481" text-anchor="middle" font-size="13" font-weight="400" fill="#0f172a">Hostへ要求を送信する</text>
<rect x="1245" y="405" width="220" height="85" rx="8" fill="#ffffff" stroke="#475569" stroke-width="1.4"/>
<text x="1355" y="435" text-anchor="middle" font-size="14" font-weight="700" fill="#0f172a">直接制御</text>
<text x="1355" y="463" text-anchor="middle" font-size="13" font-weight="400" fill="#0f172a">AppServerを経由せず</text>
<text x="1355" y="481" text-anchor="middle" font-size="13" font-weight="400" fill="#0f172a">DeviceCtrl内で制御する</text>
<rect x="260" y="260" width="220" height="75" rx="8" fill="#ffffff" stroke="#475569" stroke-width="1.4"/>
<text x="370" y="290" text-anchor="middle" font-size="14" font-weight="700" fill="#0f172a">AppServer.exe</text>
<text x="370" y="318" text-anchor="middle" font-size="13" font-weight="400" fill="#0f172a">Hostの起動・停止を管理する</text>
<rect x="260" y="430" width="220" height="90" rx="8" fill="#ffffff" stroke="#475569" stroke-width="1.4"/>
<text x="370" y="460" text-anchor="middle" font-size="14" font-weight="700" fill="#0f172a">TabletHost / DeviceHostTransport</text>
<text x="370" y="488" text-anchor="middle" font-size="13" font-weight="400" fill="#0f172a">Hostライフサイクルと</text>
<text x="370" y="506" text-anchor="middle" font-size="13" font-weight="400" fill="#0f172a">Named Pipeを管理する</text>
<rect x="530" y="625" width="220" height="80" rx="8" fill="#ffffff" stroke="#475569" stroke-width="1.4"/>
<text x="640" y="655" text-anchor="middle" font-size="14" font-weight="700" fill="#0f172a">NamedPipeCommandServer</text>
<text x="640" y="683" text-anchor="middle" font-size="13" font-weight="400" fill="#0f172a">TabletPos.Host.Commandで</text>
<text x="640" y="701" text-anchor="middle" font-size="13" font-weight="400" fill="#0f172a">要求を受け付ける</text>
<rect x="530" y="765" width="220" height="80" rx="8" fill="#ffffff" stroke="#475569" stroke-width="1.4"/>
<text x="640" y="795" text-anchor="middle" font-size="14" font-weight="700" fill="#0f172a">CommandMapper / Handler</text>
<text x="640" y="823" text-anchor="middle" font-size="13" font-weight="400" fill="#0f172a">要求を内部処理へ変換し</text>
<text x="640" y="841" text-anchor="middle" font-size="13" font-weight="400" fill="#0f172a">機器操作を実行する</text>
<rect x="665" y="850" width="220" height="70" rx="8" fill="#ffffff" stroke="#475569" stroke-width="1.4"/>
<text x="775" y="880" text-anchor="middle" font-size="14" font-weight="700" fill="#0f172a">NamedPipeEventPublisher</text>
<text x="775" y="908" text-anchor="middle" font-size="13" font-weight="400" fill="#0f172a">ReplyDeviceなどを通知する</text>
<rect x="150" y="745" width="220" height="75" rx="8" fill="#ffffff" stroke="#475569" stroke-width="1.4"/>
<text x="260" y="775" text-anchor="middle" font-size="14" font-weight="700" fill="#0f172a">host_device_config.json</text>
<text x="260" y="803" text-anchor="middle" font-size="13" font-weight="400" fill="#0f172a">機器構成と実装クラスを定義する</text>
<rect x="150" y="845" width="220" height="80" rx="8" fill="#ffffff" stroke="#475569" stroke-width="1.4"/>
<text x="260" y="875" text-anchor="middle" font-size="14" font-weight="700" fill="#0f172a">TabletDeviceManager</text>
<text x="260" y="903" text-anchor="middle" font-size="13" font-weight="400" fill="#0f172a">機器IDとメソッドIDを解決し</text>
<text x="260" y="921" text-anchor="middle" font-size="13" font-weight="400" fill="#0f172a">対象機器を呼び出す</text>
<rect x="70" y="1010" width="220" height="65" rx="8" fill="#ffffff" stroke="#475569" stroke-width="1.4"/>
<text x="180" y="1040" text-anchor="middle" font-size="14" font-weight="700" fill="#0f172a">釣銭機</text>
<text x="180" y="1068" text-anchor="middle" font-size="13" font-weight="400" fill="#0f172a">CashChangerByRT300</text>
<text x="180" y="1086" text-anchor="middle" font-size="13" font-weight="400" fill="#0f172a">既存実装を継続利用</text>
<rect x="215" y="1010" width="220" height="65" rx="8" fill="#ffffff" stroke="#475569" stroke-width="1.4"/>
<text x="325" y="1040" text-anchor="middle" font-size="14" font-weight="700" fill="#0f172a">キャッシュドロア</text>
<text x="325" y="1068" text-anchor="middle" font-size="13" font-weight="400" fill="#0f172a">CashDrawerBySharp</text>
<text x="325" y="1086" text-anchor="middle" font-size="13" font-weight="400" fill="#0f172a">SHARP既存実装を利用</text>
<rect x="360" y="1010" width="220" height="65" rx="8" fill="#ffffff" stroke="#475569" stroke-width="1.4"/>
<text x="470" y="1040" text-anchor="middle" font-size="14" font-weight="700" fill="#0f172a">カスタマーディスプレイ</text>
<text x="470" y="1068" text-anchor="middle" font-size="13" font-weight="400" fill="#0f172a">CustomerDisplayBySharp</text>
<text x="470" y="1086" text-anchor="middle" font-size="13" font-weight="400" fill="#0f172a">SHARP既存実装を利用</text>
<rect x="1030" y="1010" width="220" height="65" rx="8" fill="#ffffff" stroke="#475569" stroke-width="1.4"/>
<text x="1140" y="1040" text-anchor="middle" font-size="14" font-weight="700" fill="#0f172a">スキャナー</text>
<text x="1140" y="1068" text-anchor="middle" font-size="13" font-weight="400" fill="#0f172a">USB / Bluetooth</text>
<rect x="1160" y="1010" width="220" height="65" rx="8" fill="#ffffff" stroke="#475569" stroke-width="1.4"/>
<text x="1270" y="1040" text-anchor="middle" font-size="14" font-weight="700" fill="#0f172a">カメラ</text>
<text x="1270" y="1068" text-anchor="middle" font-size="13" font-weight="400" fill="#0f172a">バーコード読取</text>
<rect x="1290" y="1010" width="220" height="65" rx="8" fill="#ffffff" stroke="#475569" stroke-width="1.4"/>
<text x="1400" y="1040" text-anchor="middle" font-size="14" font-weight="700" fill="#0f172a">プリンター</text>
<text x="1400" y="1068" text-anchor="middle" font-size="13" font-weight="400" fill="#0f172a">レシート / A4</text>
<rect x="1420" y="1010" width="220" height="65" rx="8" fill="#ffffff" stroke="#475569" stroke-width="1.4"/>
<text x="1530" y="1040" text-anchor="middle" font-size="14" font-weight="700" fill="#0f172a">決済端末</text>
<text x="1530" y="1068" text-anchor="middle" font-size="13" font-weight="400" fill="#0f172a">決済連携</text>
<path d="M 1240 155 L 1240 250" fill="none" stroke="#475569" stroke-width="1.35" marker-end="url(#arrow)"/>
<rect x="1078" y="204" width="64" height="22" rx="5" fill="#ffffff" stroke="none" stroke-width="0"/>
<text x="1110" y="220" text-anchor="middle" font-size="12" font-weight="500" fill="#475569">機器操作要求</text>
<path d="M 1230 355 L 1230 380 L 1338 380 L 1338 405" fill="none" stroke="#475569" stroke-width="1.35" marker-end="url(#arrow)"/>
<rect x="1281" y="364" width="88" height="22" rx="5" fill="#ffffff" stroke="none" stroke-width="0"/>
<text x="1325" y="380" text-anchor="middle" font-size="12" font-weight="500" fill="#475569">直接制御可能な機器</text>
<path d="M 1185 355 L 1185 380 L 1055 380 L 1055 405" fill="none" stroke="#475569" stroke-width="1.35" marker-end="url(#arrow)"/>
<rect x="969" y="364" width="152" height="22" rx="5" fill="#ffffff" stroke="none" stroke-width="0"/>
<text x="1045" y="380" text-anchor="middle" font-size="12" font-weight="500" fill="#475569">AppServer経由が必要な機器</text>
<path d="M 965 448 L 890 448 L 890 665 L 720 665" fill="none" stroke="#475569" stroke-width="1.35" marker-end="url(#arrow)"/>
<rect x="641" y="584" width="208" height="22" rx="5" fill="#ffffff" stroke="none" stroke-width="0"/>
<text x="745" y="600" text-anchor="middle" font-size="12" font-weight="500" fill="#475569">DeviceUse / DeviceMethod</text>
<path d="M 665 885 L 890 885 L 890 720 L 890 470 L 965 470" fill="none" stroke="#64748b" stroke-width="1.35" stroke-dasharray="8 6" marker-end="url(#arrow)"/>
<rect x="740" y="724" width="120" height="22" rx="5" fill="#ffffff" stroke="none" stroke-width="0"/>
<text x="800" y="740" text-anchor="middle" font-size="12" font-weight="500" fill="#64748b">ReplyDevice通知</text>
<path d="M 355 335 L 355 430" fill="none" stroke="#475569" stroke-width="1.35" marker-end="url(#arrow)"/>
<path d="M 450 475 L 530 475 L 530 665" fill="none" stroke="#475569" stroke-width="1.35" marker-end="url(#arrow)"/>
<path d="M 625 705 L 625 765" fill="none" stroke="#475569" stroke-width="1.35" marker-end="url(#arrow)"/>
<path d="M 530 805 L 480 805 L 480 885 L 360 885" fill="none" stroke="#475569" stroke-width="1.35" marker-end="url(#arrow)"/>
<path d="M 625 845 L 625 885 L 665 885" fill="none" stroke="#475569" stroke-width="1.35" marker-end="url(#arrow)"/>
<path d="M 355 520 L 355 745" fill="none" stroke="#475569" stroke-width="1.35" marker-end="url(#arrow)"/>
<path d="M 255 820 L 255 845" fill="none" stroke="#475569" stroke-width="1.35" marker-end="url(#arrow)"/>
<path d="M 1270 490 L 1270 950 L 1090 950 L 1090 1010" fill="none" stroke="#475569" stroke-width="1.35" marker-end="url(#arrow)"/>
<path d="M 1310 490 L 1310 950 L 1220 950 L 1220 1010" fill="none" stroke="#475569" stroke-width="1.35" marker-end="url(#arrow)"/>
<path d="M 1360 490 L 1360 950 L 1350 950 L 1350 1010" fill="none" stroke="#475569" stroke-width="1.35" marker-end="url(#arrow)"/>
<path d="M 1410 490 L 1410 950 L 1468 950 L 1468 1010" fill="none" stroke="#475569" stroke-width="1.35" marker-end="url(#arrow)"/>
<path d="M 190 925 L 190 970 L 135 970 L 135 1010" fill="none" stroke="#475569" stroke-width="1.35" marker-end="url(#arrow)"/>
<path d="M 230 925 L 230 970 L 280 970 L 280 1010" fill="none" stroke="#475569" stroke-width="1.35" marker-end="url(#arrow)"/>
<path d="M 310 925 L 310 970 L 425 970 L 425 1010" fill="none" stroke="#475569" stroke-width="1.35" marker-end="url(#arrow)"/>
</svg>